# xmcd
#
# Track frame offsets:
#	150
#	12189
#	47070
#	59365
#	91743
#	107473
#	131900
#	143975
#	161580
#	173495
#	191703
#	221479
#	235256
#	247244
#	259346
#
# Disc length: 3625 seconds
#
# Revision: 0
# Processed by: cddbd v1.5.1PL0 Copyright (c) Steve Scherf et al.
# Submitted via: dBpowerAMP V4.0
#
DISCID=d40e270f
DTITLE=Ray Charles - BD Jazz CD1
DYEAR=1900
DGENRE=Blues
TTITLE0=Let the good times roll
TTITLE1=Georgia on my mind
TTITLE2=Hit the road Jack
TTITLE3=Come rain or come shine
TTITLE4=Hallelujah I love her so
TTITLE5=I'm gonna move to the outskirts of town
TTITLE6=Alexander's ragtime band
TTITLE7=I believe to my soul
TTITLE8=Margie
TTITLE9=I wonder
TTITLE10=Whath'd I say
TTITLE11=The midnight hour
TTITLE12=Roll with my baby
TTITLE13=The sun's gonna shine again
TTITLE14=Jumpin' in the morning
EXTD=
EXTT0=
EXTT1=
EXTT2=
EXTT3=
EXTT4=
EXTT5=
EXTT6=
EXTT7=
EXTT8=
EXTT9=
EXTT10=
EXTT11=
EXTT12=
EXTT13=
EXTT14=
PLAYORDER=
